<?xml version="1.0" standalone="no"?>
<!DOCTYPE svg PUBLIC "-//W3C//DTD SVG 20010904//EN"
 "http://www.w3.org/TR/2001/REC-SVG-20010904/DTD/svg10.dtd">
<svg version="1.0" xmlns="http://www.w3.org/2000/svg"
 width="250.000000pt" height="250.000000pt" viewBox="0 0 250.000000 250.000000"
 preserveAspectRatio="xMidYMid meet">
<metadata>
Created by potrace 1.11, written by Peter Selinger 2001-2013
</metadata>
<g transform="translate(0.000000,250.000000) scale(0.100000,-0.100000)"
fill="#000000" stroke="none">
<path d="M1165 2489 c-273 -22 -505 -116 -713 -288 -218 -182 -363 -426 -423
-714 -48 -232 -12 -560 81 -740 11 -22 20 -43 20 -47 0 -14 99 -171 138 -220
110 -139 268 -268 422 -345 100 -50 229 -95 310 -109 19 -3 46 -9 60 -12 63
-15 309 -12 406 6 326 59 608 237 799 505 249 349 301 814 134 1206 -104 246
-292 458 -524 593 -107 62 -274 125 -375 142 -14 3 -31 7 -38 9 -7 3 -55 7
-105 11 -51 3 -96 6 -102 8 -5 1 -46 -1 -90 -5z"/>
</g>
</svg>
